<svg aria-hidden="true" role="img" viewBox="-32 0 512 512" width="24" height="24" xmlns="http://www.w3.org/2000/svg" fill="currentColor">
  <path d="M304 160h-48v-16c0-17.7-14.3-32-32-32h-48c-17.7 0-32 14.3-32 32v16h-48c-8.8 0-16 7.2-16 16s7.2 16 16 16h16v224c0 26.5 21.5 48 48 48h128c26.5 0 48-21.5 48-48V192h16c8.8 0 16-7.2 16-16s-7.2-16-16-16zm-112-16h48v16h-48v-16zm96 272c0 8.8-7.2 16-16 16H160c-8.8 0-16-7.2-16-16V192h144v224z"/>
  <path d="M192 240c-8.8 0-16 7.2-16 16v128c0 8.8 7.2 16 16 16s16-7.2 16-16V256c0-8.8-7.2-16-16-16zm64 0c-8.8 0-16 7.2-16 16v128c0 8.8 7.2 16 16 16s16-7.2 16-16V256c0-8.8-7.2-16-16-16z"/>
</svg>
